<svg xmlns="http://www.w3.org/2000/svg" width="1900" height="1080" viewBox="0 0 1900 1080">
  <rect width="1900" height="1080" fill="#ffffff"/>
  <rect width="1900" height="158" fill="#090f0f"/>
  <g fill="#ffffff" font-family="Arial, Helvetica, sans-serif">
    <text x="108" y="93" font-size="18" font-weight="700" letter-spacing="3">DIFFERENZA</text>
    <text x="538" y="86" font-size="18">SOBRE NOS</text>
    <text x="653" y="86" font-size="18">SERVICOS</text>
    <text x="756" y="86" font-size="18">UNIDADES</text>
    <text x="858" y="86" font-size="18">NOIVAS/EVENTOS</text>
    <text x="1018" y="86" font-size="18">CONTATO</text>
    <text x="1332" y="86" font-size="18">(54) 3221-8270</text>
    <text x="1482" y="86" font-size="18">atendimento@salaodifferenza.com.br</text>
  </g>
  <path d="M140 48l16 16 16-16 10 10-26 26-26-26z" fill="none" stroke="#fff" stroke-width="5"/>
  <text x="126" y="109" fill="#fff" font-family="Arial" font-size="8" letter-spacing="3">Salao e Barbearia</text>

  <rect y="158" width="1900" height="224" fill="#c72db1"/>
  <linearGradient id="hero" x1="0" y1="0" x2="1" y2="0">
    <stop offset="0" stop-color="#c72db1"/>
    <stop offset=".52" stop-color="#f3d8ef"/>
    <stop offset="1" stop-color="#c72db1"/>
  </linearGradient>
  <rect y="158" width="1900" height="224" fill="url(#hero)"/>
  <rect x="305" y="174" width="200" height="72" fill="none" stroke="#fff" stroke-width="3"/>
  <text x="350" y="221" fill="#fff" font-family="Arial" font-size="28" font-weight="700">AGENDE</text>
  <path d="M30 334h80m34 0h78" stroke="#5a3385" stroke-width="2"/>
  <path d="M32 334l8-8m-8 8l8 8m180-8l-8-8m8 8l-8 8" stroke="#5a3385" stroke-width="2" fill="none"/>
  <g opacity=".9" transform="translate(1220 158)">
    <rect x="86" y="10" width="118" height="118" fill="none" stroke="#fff" stroke-width="9" transform="rotate(45 145 69)"/>
    <rect x="236" y="42" width="118" height="118" fill="none" stroke="#fff" stroke-width="9" transform="rotate(45 295 101)"/>
    <rect x="398" y="14" width="118" height="118" fill="none" stroke="#fff" stroke-width="9" transform="rotate(45 457 73)"/>
    <rect x="90" y="0" width="240" height="224" fill="#d33b26" opacity=".35"/>
  </g>

  <rect x="348" y="542" width="594" height="398" fill="#b9aaa0"/>
  <rect x="368" y="562" width="554" height="358" fill="#9f938b"/>
  <rect x="595" y="558" width="205" height="72" fill="#d8d1c8"/>
  <rect x="603" y="650" width="190" height="78" fill="#776c64"/>
  <rect x="370" y="710" width="155" height="210" fill="#6c5d55"/>
  <rect x="778" y="710" width="145" height="210" fill="#6c5d55"/>
  <text x="416" y="666" fill="#141414" font-family="Arial" font-size="42" font-weight="700">DIFFERENZA</text>

  <text x="1068" y="660" fill="#000" font-family="Arial, Helvetica, sans-serif" font-size="88" font-weight="700">Differenza</text>
  <text x="1048" y="718" fill="#000" font-family="Arial" font-size="21">Nossos saloes e barbearias sao os lugares criados para</text>
  <text x="1048" y="753" fill="#000" font-family="Arial" font-size="21">mulheres e homens que apreciam alta qualidade,</text>
  <text x="1048" y="788" fill="#000" font-family="Arial" font-size="21">servico perfeito e visual de primeira classe. Bem-vindo</text>
  <text x="1048" y="823" fill="#000" font-family="Arial" font-size="21">ao Differenza!</text>
  <rect x="1188" y="853" width="244" height="48" fill="#fff" stroke="#6b2aa2" stroke-width="2"/>
  <text x="1219" y="883" fill="#000" font-family="Arial" font-size="16" font-weight="700">LEIA MAIS SOBRE NOS</text>

  <rect y="1018" width="1900" height="62" fill="#303039"/>
  <text x="366" y="1054" fill="#fff" font-family="Arial" font-size="13" font-weight="700">Usamos cookies para garantir que oferecemos a melhor experiencia em nosso site.</text>
  <rect x="1302" y="1034" width="62" height="30" rx="3" fill="#00a99d"/>
  <rect x="1374" y="1034" width="67" height="30" rx="3" fill="#00a99d"/>
  <rect x="1450" y="1034" width="90" height="30" rx="3" fill="#00a99d"/>
  <text x="1314" y="1055" fill="#fff" font-family="Arial" font-size="13">Aceitar</text>
  <text x="1387" y="1055" fill="#fff" font-family="Arial" font-size="13">Rejeitar</text>
  <text x="1462" y="1055" fill="#fff" font-family="Arial" font-size="13">Ver Politica</text>
  <rect x="1815" y="990" width="58" height="58" fill="#722ca8"/>
  <path d="M1838 1024l7-7 7 7" fill="none" stroke="#fff" stroke-width="3"/>
</svg>
